<?xml version="1.0" standalone="no"?><!DOCTYPE svg PUBLIC "-//W3C//DTD SVG 1.1//EN" "http://www.w3.org/Graphics/SVG/1.1/DTD/svg11.dtd"><svg t="1532750800125" class="icon" style="" viewBox="0 0 1024 1024" version="1.1" xmlns="http://www.w3.org/2000/svg" p-id="1079" xmlns:xlink="http://www.w3.org/1999/xlink" width="32" height="32"><defs><style type="text/css"></style></defs><path d="M680.27904 199.8848V140.93312c0-16.40448-2.688-19.49184-18.68288-19.49184H228.27008c-15.99488 0-18.68288 3.09248-18.68288 19.49184v609.2032c0 16.44032 2.688 29.72672 18.68288 29.72672h60.73856v43.31008h-80.7424c-29.06112 0-52.58752-24.64256-52.58752-55.03488V121.5488c0-30.39232 23.5264-54.9888 52.58752-54.9888h473.2928c29.05088 0 52.58752 24.59648 52.58752 54.9888v78.336h-53.86752z" fill="#ffffff" p-id="1080"></path><path d="M815.60576 957.44H341.19168c-29.10208 0-52.71552-24.68864-52.71552-55.12704V254.5664c0-30.43328 23.61344-55.12704 52.71552-55.12704h474.41408c29.09696 0 52.71552 24.68864 52.71552 55.12704v647.75168c0 30.43328-23.62368 55.12192-52.71552 55.12192z m-2.08384-668.42624c0-24.59648-9.728-34.3296-34.3296-34.3296H378.13248c-24.6016 0-34.32448 9.728-34.32448 34.3296v579.30752c0 24.59136 9.72288 34.32448 34.32448 34.32448h401.05472c24.6016 0 34.3296-9.73312 34.3296-34.32448V289.01376z" fill="#ffffff" p-id="1081"></path><path d="M437.1968 467.25632v-44.55936h311.936v44.55936H437.1968z m222.80704 89.12896H437.1968v-44.56448h222.81216v44.56448z m-44.55936 89.12384H437.1968v-44.5696h178.24768v44.5696z m89.11872 89.11872H437.1968v-44.55936h267.37152v44.55936z" fill="#ffffff" p-id="1082"></path></svg>