<?xml version="1.0" encoding="utf-8"?>
<svg version="1.1" xmlns:xlink="http://www.w3.org/1999/xlink" width="20px" height="20px" xmlns="http://www.w3.org/2000/svg">
  <g transform="matrix(1 0 0 1 -947 -631 )">
    <path d="M 957 631  C 962.6 631  967 635.4  967 641  C 967 646.6  962.6 651  957 651  C 951.4 651  947 646.6  947 641  C 947 635.4  951.4 631  957 631  Z " fill-rule="nonzero" fill="#ffffff" stroke="none" />
    <path d="M 957 631.5  C 962.32 631.5  966.5 635.68  966.5 641  C 966.5 646.32  962.32 650.5  957 650.5  C 951.68 650.5  947.5 646.32  947.5 641  C 947.5 635.68  951.68 631.5  957 631.5  Z " stroke-width="1" stroke="#ffffff" fill="none" />
  </g>
</svg>