<?xml version="1.0" encoding="utf-8"?>
<svg version="1.1" xmlns:xlink="http://www.w3.org/1999/xlink" width="30px" height="30px" xmlns="http://www.w3.org/2000/svg">
  <g transform="matrix(1 0 0 1 -942 -715 )">
    <path d="M 956.041727832642 715.531699669362  C 956.360669634049 715.510575346556  956.680268251559 715.5  957 715.5  C 965.008128872547 715.5  971.5 721.991871127453  971.5 730  C 971.5 738.008128872547  965.008128872547 744.5  957 744.5  C 953.171967111769 744.5  949.506446730663 742.986628151059  946.796294649821 740.302170726308  L 957.34290291893 730.363892275528  A 0.5 0.5 0 0 0 957.497470760719 729.949772097104 L 956.04172783264 715.531699669362  Z " fill-rule="nonzero" fill="#4bced0" stroke="none" />
    <path d="M 956.041727832642 715.531699669362  C 956.360669634049 715.510575346556  956.680268251559 715.5  957 715.5  C 965.008128872547 715.5  971.5 721.991871127453  971.5 730  C 971.5 738.008128872547  965.008128872547 744.5  957 744.5  C 953.171967111769 744.5  949.506446730663 742.986628151059  946.796294649821 740.302170726308  L 957.34290291893 730.363892275528  A 0.5 0.5 0 0 0 957.497470760719 729.949772097104 L 956.04172783264 715.531699669362  Z " stroke-width="1" stroke="#ffffff" fill="none" />
  </g>
</svg>