<?xml version="1.0" encoding="utf-8"?>
<svg version="1.1" xmlns:xlink="http://www.w3.org/1999/xlink" width="30px" height="30px" xmlns="http://www.w3.org/2000/svg">
  <g transform="matrix(1 0 0 1 -942 -760 )">
    <path d="M 956.041727832642 760.531699669362  C 956.360669634049 760.510575346556  956.680268251559 760.5  957 760.5  C 965.008128872547 760.5  971.5 766.991871127453  971.5 775  C 971.5 783.008128872547  965.008128872547 789.5  957 789.5  C 956.987293648309 789.5  956.97458737412 789.499983298134  956.961881210356 789.499949895013  L 957.499655594137 775.018554979047  A 0.5 0.5 0 0 0 957.497470760719 774.949772097104 L 956.04172783264 760.531699669362  Z " fill-rule="nonzero" fill="#52c1f5" stroke="none" />
    <path d="M 956.041727832642 760.531699669362  C 956.360669634049 760.510575346556  956.680268251559 760.5  957 760.5  C 965.008128872547 760.5  971.5 766.991871127453  971.5 775  C 971.5 783.008128872547  965.008128872547 789.5  957 789.5  C 956.987293648309 789.5  956.97458737412 789.499983298134  956.961881210356 789.499949895013  L 957.499655594137 775.018554979047  A 0.5 0.5 0 0 0 957.497470760719 774.949772097104 L 956.04172783264 760.531699669362  Z " stroke-width="1" stroke="#ffffff" fill="none" />
  </g>
</svg>